<svg width="19" height="19" viewBox="0 0 19 19" fill="none" xmlns="http://www.w3.org/2000/svg">
<path d="M18.0342 8.20957C17.9597 8.11772 17.8655 8.04373 17.7587 7.99304C17.6518 7.94236 17.535 7.91625 17.4167 7.91665H15.8334V7.12499C15.8334 6.4951 15.5831 5.89101 15.1377 5.44561C14.6923 5.00021 14.0882 4.74999 13.4584 4.74999H8.48669L8.23335 3.95832C8.06912 3.49379 7.76449 3.09184 7.36165 2.80816C6.95881 2.52447 6.47772 2.37309 5.98502 2.37499H3.16669C2.5368 2.37499 1.93271 2.62521 1.48731 3.07061C1.04191 3.51601 0.791687 4.1201 0.791687 4.74999V14.25C0.791687 14.8799 1.04191 15.484 1.48731 15.9294C1.93271 16.3748 2.5368 16.625 3.16669 16.625H14.5667C15.106 16.6234 15.6287 16.4384 16.0488 16.1002C16.469 15.7621 16.7615 15.2911 16.8784 14.7646L18.2084 8.88249C18.2324 8.76446 18.2293 8.6425 18.1991 8.52589C18.1689 8.40928 18.1125 8.30109 18.0342 8.20957ZM4.25127 14.4242C4.21105 14.6027 4.11019 14.7619 3.96585 14.8745C3.82151 14.987 3.64261 15.0461 3.4596 15.0417H3.16669C2.95672 15.0417 2.75536 14.9582 2.60689 14.8098C2.45843 14.6613 2.37502 14.46 2.37502 14.25V4.74999C2.37502 4.54002 2.45843 4.33866 2.60689 4.19019C2.75536 4.04173 2.95672 3.95832 3.16669 3.95832H5.98502C6.15766 3.94931 6.3285 3.99705 6.47145 4.09426C6.6144 4.19147 6.7216 4.33279 6.77669 4.49665L7.20419 5.79499C7.25499 5.94599 7.35017 6.07816 7.47729 6.1742C7.60441 6.27025 7.75755 6.3257 7.91669 6.33332H13.4584C13.6683 6.33332 13.8697 6.41673 14.0181 6.56519C14.1666 6.71366 14.25 6.91502 14.25 7.12499V7.91665H6.33335C6.15035 7.91218 5.97145 7.97127 5.82711 8.08385C5.68277 8.19644 5.58191 8.35557 5.54169 8.53415L4.25127 14.4242ZM15.3346 14.4242C15.2944 14.6027 15.1935 14.7619 15.0492 14.8745C14.9048 14.987 14.7259 15.0461 14.5429 15.0417H5.70794C5.74882 14.9534 5.7781 14.8603 5.79502 14.7646L6.96669 9.49999H16.4667L15.3346 14.4242Z" fill="white"/>
</svg>
