<svg width="19" height="19" viewBox="0 0 19 19" fill="none" xmlns="http://www.w3.org/2000/svg">
<path d="M16.7596 1.63083C16.1921 1.53308 15.6175 1.48277 15.0417 1.48041C13.077 1.4788 11.1534 2.04216 9.49999 3.10333C7.84235 2.05609 5.919 1.50656 3.95832 1.51999C3.3825 1.52235 2.80787 1.57267 2.2404 1.67041C2.05452 1.70246 1.8862 1.79982 1.76573 1.94496C1.64526 2.0901 1.58058 2.27348 1.58332 2.46208V11.9621C1.58162 12.0784 1.60559 12.1937 1.6535 12.2997C1.70141 12.4057 1.7721 12.4998 1.86054 12.5754C1.94897 12.651 2.05298 12.7062 2.16516 12.737C2.27734 12.7678 2.39493 12.7735 2.50957 12.7537C3.64404 12.5573 4.80635 12.5899 5.92804 12.8496C7.04972 13.1093 8.1081 13.5908 9.04082 14.2658L9.13582 14.3212H9.2229C9.3107 14.3578 9.40487 14.3767 9.49999 14.3767C9.5951 14.3767 9.68927 14.3578 9.77707 14.3212H9.86415L9.95915 14.2658C10.8854 13.5757 11.9407 13.0786 13.0626 12.8039C14.1845 12.5292 15.3501 12.4825 16.4904 12.6667C16.605 12.6864 16.7226 12.6807 16.8348 12.6499C16.947 12.6191 17.051 12.5639 17.1394 12.4883C17.2279 12.4127 17.2986 12.3186 17.3465 12.2126C17.3944 12.1066 17.4183 11.9913 17.4167 11.875V2.37499C17.4084 2.19462 17.3388 2.02247 17.2192 1.88712C17.0997 1.75177 16.9375 1.66134 16.7596 1.63083ZM8.70832 12.1521C7.24364 11.3815 5.61331 10.9794 3.95832 10.9804C3.69707 10.9804 3.43582 10.9804 3.16665 10.9804V3.06374C3.43032 3.04855 3.69465 3.04855 3.95832 3.06374C5.64725 3.06188 7.29932 3.5575 8.70832 4.48874V12.1521ZM15.8333 11.0121C15.5642 11.0121 15.3029 11.0121 15.0417 11.0121C13.3867 11.0111 11.7563 11.4132 10.2917 12.1837V4.48874C11.7006 3.5575 13.3527 3.06188 15.0417 3.06374C15.3053 3.04855 15.5696 3.04855 15.8333 3.06374V11.0121ZM16.7596 14.2975C16.1921 14.1997 15.6175 14.1494 15.0417 14.1471C13.077 14.1455 11.1534 14.7088 9.49999 15.77C7.8466 14.7088 5.92295 14.1455 3.95832 14.1471C3.3825 14.1494 2.80787 14.1997 2.2404 14.2975C2.13735 14.3138 2.03855 14.3504 1.94967 14.4051C1.8608 14.4598 1.78361 14.5315 1.72255 14.6161C1.66148 14.7007 1.61774 14.7965 1.59385 14.8981C1.56996 14.9997 1.56638 15.105 1.58332 15.2079C1.62355 15.4135 1.74362 15.5948 1.91724 15.712C2.09085 15.8292 2.30385 15.8728 2.50957 15.8333C3.64404 15.6369 4.80635 15.6695 5.92804 15.9292C7.04972 16.1889 8.1081 16.6704 9.04082 17.3454C9.1749 17.4409 9.3354 17.4922 9.49999 17.4922C9.66458 17.4922 9.82507 17.4409 9.95915 17.3454C10.8919 16.6704 11.9502 16.1889 13.0719 15.9292C14.1936 15.6695 15.3559 15.6369 16.4904 15.8333C16.6961 15.8728 16.9091 15.8292 17.0827 15.712C17.2563 15.5948 17.3764 15.4135 17.4167 15.2079C17.4336 15.105 17.43 14.9997 17.4061 14.8981C17.3822 14.7965 17.3385 14.7007 17.2774 14.6161C17.2164 14.5315 17.1392 14.4598 17.0503 14.4051C16.9614 14.3504 16.8626 14.3138 16.7596 14.2975V14.2975Z" fill="white"/>
</svg>
