<svg width="19" height="19" viewBox="0 0 19 19" fill="none" xmlns="http://www.w3.org/2000/svg">
<path d="M15.7542 10.0225C15.6273 9.87803 15.5573 9.6923 15.5573 9.5C15.5573 9.30769 15.6273 9.12197 15.7542 8.9775L16.7675 7.8375C16.8792 7.71294 16.9485 7.55622 16.9656 7.38981C16.9827 7.22341 16.9466 7.05587 16.8625 6.91125L15.2792 4.17208C15.196 4.02762 15.0693 3.91311 14.9172 3.84487C14.7651 3.77664 14.5953 3.75816 14.4321 3.79208L12.9438 4.09291C12.7544 4.13204 12.5572 4.1005 12.3895 4.00425C12.2218 3.90799 12.0951 3.75367 12.0334 3.57041L11.5504 2.12166C11.4973 1.96442 11.3961 1.82785 11.2612 1.73125C11.1262 1.63464 10.9643 1.5829 10.7984 1.58333H7.63169C7.45905 1.57432 7.28821 1.62206 7.14526 1.71927C7.00231 1.81648 6.8951 1.9578 6.84002 2.12166L6.39669 3.57041C6.33494 3.75367 6.20825 3.90799 6.04053 4.00425C5.8728 4.1005 5.67565 4.13204 5.48627 4.09291L3.95835 3.79208C3.80362 3.77021 3.64588 3.79463 3.505 3.86225C3.36412 3.92987 3.24641 4.03768 3.16669 4.17208L1.58335 6.91125C1.49719 7.05426 1.45845 7.22086 1.47266 7.38721C1.48688 7.55357 1.55333 7.71118 1.66252 7.8375L2.66794 8.9775C2.79486 9.12197 2.86485 9.30769 2.86485 9.5C2.86485 9.6923 2.79486 9.87803 2.66794 10.0225L1.66252 11.1625C1.55333 11.2888 1.48688 11.4464 1.47266 11.6128C1.45845 11.7791 1.49719 11.9457 1.58335 12.0887L3.16669 14.8279C3.24989 14.9724 3.37657 15.0869 3.52868 15.1551C3.68078 15.2234 3.85055 15.2418 4.01377 15.2079L5.5021 14.9071C5.69148 14.8679 5.88864 14.8995 6.05636 14.9957C6.22408 15.092 6.35077 15.2463 6.41252 15.4296L6.89544 16.8783C6.95052 17.0422 7.05772 17.1835 7.20068 17.2807C7.34363 17.3779 7.51447 17.4257 7.6871 17.4167H10.8538C11.0197 17.4171 11.1816 17.3653 11.3166 17.2687C11.4516 17.1721 11.5527 17.0356 11.6059 16.8783L12.0888 15.4296C12.1505 15.2463 12.2772 15.092 12.4449 14.9957C12.6127 14.8995 12.8098 14.8679 12.9992 14.9071L14.4875 15.2079C14.6507 15.2418 14.8205 15.2234 14.9726 15.1551C15.1247 15.0869 15.2514 14.9724 15.3346 14.8279L16.9179 12.0887C17.002 11.9441 17.0381 11.7766 17.021 11.6102C17.0039 11.4438 16.9346 11.2871 16.8229 11.1625L15.7542 10.0225ZM14.5746 11.0833L15.2079 11.7958L14.1946 13.5533L13.2604 13.3633C12.6903 13.2468 12.0971 13.3436 11.5937 13.6355C11.0902 13.9274 10.7114 14.394 10.5292 14.9467L10.2284 15.8333H8.20169L7.91669 14.9308C7.73449 14.3781 7.3557 13.9115 6.85221 13.6197C6.34873 13.3278 5.75561 13.2309 5.18544 13.3475L4.25127 13.5375L3.2221 11.7879L3.85544 11.0754C4.2449 10.64 4.46022 10.0763 4.46022 9.49208C4.46022 8.90788 4.2449 8.34418 3.85544 7.90875L3.2221 7.19625L4.23544 5.45458L5.1696 5.64458C5.73978 5.76113 6.3329 5.66428 6.83638 5.3724C7.33986 5.08053 7.71865 4.61396 7.90085 4.06125L8.20169 3.16666H10.2284L10.5292 4.06916C10.7114 4.62187 11.0902 5.08845 11.5937 5.38032C12.0971 5.67219 12.6903 5.76905 13.2604 5.6525L14.1946 5.4625L15.2079 7.22L14.5746 7.9325C14.1895 8.36693 13.9769 8.92737 13.9769 9.50791C13.9769 10.0885 14.1895 10.6489 14.5746 11.0833V11.0833ZM9.21502 6.33333C8.58871 6.33333 7.97647 6.51905 7.45571 6.86701C6.93496 7.21497 6.52908 7.70953 6.2894 8.28816C6.04972 8.8668 5.98701 9.50351 6.1092 10.1178C6.23139 10.7321 6.53298 11.2963 6.97585 11.7392C7.41871 12.182 7.98296 12.4836 8.59723 12.6058C9.21151 12.728 9.84822 12.6653 10.4268 12.4256C11.0055 12.1859 11.5 11.7801 11.848 11.2593C12.196 10.7385 12.3817 10.1263 12.3817 9.5C12.3817 8.66014 12.0481 7.85469 11.4542 7.26082C10.8603 6.66696 10.0549 6.33333 9.21502 6.33333V6.33333ZM9.21502 11.0833C8.90187 11.0833 8.59574 10.9905 8.33537 10.8165C8.07499 10.6425 7.87205 10.3952 7.75221 10.1059C7.63237 9.81659 7.60102 9.49824 7.66211 9.1911C7.7232 8.88397 7.874 8.60184 8.09543 8.38041C8.31687 8.15898 8.59899 8.00818 8.90613 7.94709C9.21326 7.88599 9.53162 7.91735 9.82093 8.03719C10.1103 8.15703 10.3575 8.35997 10.5315 8.62034C10.7055 8.88072 10.7984 9.18684 10.7984 9.5C10.7984 9.91992 10.6315 10.3226 10.3346 10.6196C10.0377 10.9165 9.63495 11.0833 9.21502 11.0833Z" fill="white"/>
</svg>
