<svg width="19" height="19" viewBox="0 0 19 19" fill="none" xmlns="http://www.w3.org/2000/svg">
<path d="M14.25 2.375C13.6201 2.375 13.016 2.62522 12.5706 3.07062C12.1252 3.51602 11.875 4.12011 11.875 4.75V14.25C11.875 14.8799 12.1252 15.484 12.5706 15.9294C13.016 16.3748 13.6201 16.625 14.25 16.625C14.8799 16.625 15.484 16.3748 15.9294 15.9294C16.3748 15.484 16.625 14.8799 16.625 14.25C16.625 13.6201 16.3748 13.016 15.9294 12.5706C15.484 12.1252 14.8799 11.875 14.25 11.875H4.75C4.12011 11.875 3.51602 12.1252 3.07062 12.5706C2.62522 13.016 2.375 13.6201 2.375 14.25C2.375 14.8799 2.62522 15.484 3.07062 15.9294C3.51602 16.3748 4.12011 16.625 4.75 16.625C5.37989 16.625 5.98398 16.3748 6.42938 15.9294C6.87478 15.484 7.125 14.8799 7.125 14.25V4.75C7.125 4.12011 6.87478 3.51602 6.42938 3.07062C5.98398 2.62522 5.37989 2.375 4.75 2.375C4.12011 2.375 3.51602 2.62522 3.07062 3.07062C2.62522 3.51602 2.375 4.12011 2.375 4.75C2.375 5.37989 2.62522 5.98398 3.07062 6.42938C3.51602 6.87478 4.12011 7.125 4.75 7.125H14.25C14.8799 7.125 15.484 6.87478 15.9294 6.42938C16.3748 5.98398 16.625 5.37989 16.625 4.75C16.625 4.12011 16.3748 3.51602 15.9294 3.07062C15.484 2.62522 14.8799 2.375 14.25 2.375Z" stroke="white" stroke-width="2" stroke-linecap="round" stroke-linejoin="round"/>
</svg>
