<svg width="180" height="55" viewBox="0 0 180 55" fill="none" xmlns="http://www.w3.org/2000/svg">
<path d="M12.9998 37.5C7.39976 37.5 1.99976 34.5 -0.000244141 33L3.49976 27.5C9.49976 33 17.4998 33 17.4998 29.5C17.4998 26 15.4998 26.5 10.4998 25C5.49976 23.5 1.99976 22 1.99976 16.5C1.99976 11 6.49976 7.50001 13.9998 8.00001C19.9998 8.40001 23.8331 10.5 24.9998 11.5L21.9998 16.5L16.9998 14.5C14.4998 13.5 10.9998 13 9.99976 15C8.99976 17 11.9998 18.5 16.4998 20C20.9998 21.5 25.4998 24 25.4998 29C25.4998 34 19.9998 37.5 12.9998 37.5Z" fill="white"/>
<path d="M87.5 23H81V30C80.8333 30.5 79.6 31.5 76 31.5C71.5 31.5 67.5 29.5 67.5 23C67.5 16.5 70.5 14 76 14C80.4 14 82.8333 16 83.5 17L87.5 12.5C86.1667 11 82 8 76 8C68.5 8 60 12.5 60 22.5C60 32.5 67 37.5 75 37.5C81.4 37.5 86 35.1667 87.5 34V23Z" fill="white"/>
<path fill-rule="evenodd" clip-rule="evenodd" d="M99.5 37L111.5 8.5H119L131 37H123.5L121.5 32H109L106.5 37H99.5ZM115 16L111 26H119L115 16Z" fill="white"/>
<path d="M39 37V8.5H46V37H39Z" fill="white"/>
<path d="M29.3071 53.1016C29.3071 53.0186 29.2941 52.9453 29.2681 52.8818C29.2437 52.8167 29.1997 52.7581 29.1362 52.7061C29.0744 52.654 28.9881 52.6043 28.8774 52.5571C28.7684 52.5099 28.63 52.4619 28.4624 52.4131C28.2866 52.361 28.1279 52.3032 27.9863 52.2397C27.8447 52.1746 27.7235 52.1006 27.6226 52.0176C27.5216 51.9346 27.4443 51.8394 27.3906 51.7319C27.3369 51.6245 27.3101 51.5016 27.3101 51.3633C27.3101 51.2249 27.3385 51.0972 27.3955 50.98C27.4525 50.8628 27.5339 50.7611 27.6396 50.6748C27.7471 50.5869 27.8748 50.5186 28.0229 50.4697C28.1711 50.4209 28.3363 50.3965 28.5186 50.3965C28.7855 50.3965 29.0117 50.4478 29.1973 50.5503C29.3844 50.6512 29.5269 50.7839 29.6245 50.9482C29.7222 51.111 29.771 51.2852 29.771 51.4707H29.3022C29.3022 51.3372 29.2738 51.2192 29.2168 51.1167C29.1598 51.0125 29.0736 50.9312 28.958 50.8726C28.8424 50.8123 28.696 50.7822 28.5186 50.7822C28.3509 50.7822 28.2126 50.8075 28.1035 50.8579C27.9945 50.9084 27.9131 50.9767 27.8594 51.063C27.8073 51.1493 27.7812 51.2477 27.7812 51.3584C27.7812 51.4333 27.7967 51.5016 27.8276 51.5635C27.8602 51.6237 27.9098 51.6799 27.9766 51.7319C28.0449 51.784 28.1312 51.832 28.2354 51.876C28.3411 51.9199 28.4673 51.9622 28.6138 52.0029C28.8156 52.0599 28.9897 52.1234 29.1362 52.1934C29.2827 52.2633 29.4032 52.3423 29.4976 52.4302C29.5936 52.5164 29.6644 52.6149 29.71 52.7256C29.7572 52.8346 29.7808 52.9583 29.7808 53.0967C29.7808 53.2415 29.7515 53.3726 29.6929 53.4897C29.6343 53.6069 29.5505 53.707 29.4414 53.79C29.3324 53.873 29.2013 53.9373 29.0483 53.9829C28.897 54.0269 28.7277 54.0488 28.5405 54.0488C28.3761 54.0488 28.2142 54.026 28.0547 53.9805C27.8968 53.9349 27.7528 53.8665 27.6226 53.7754C27.494 53.6842 27.3906 53.5719 27.3125 53.4385C27.236 53.3034 27.1978 53.1471 27.1978 52.9697H27.6665C27.6665 53.0918 27.6901 53.1968 27.7373 53.2847C27.7845 53.3709 27.8488 53.4425 27.9302 53.4995C28.0132 53.5565 28.1068 53.5988 28.2109 53.6265C28.3167 53.6525 28.4266 53.6655 28.5405 53.6655C28.7049 53.6655 28.8441 53.6427 28.958 53.5972C29.0719 53.5516 29.1582 53.4865 29.2168 53.4019C29.277 53.3172 29.3071 53.2171 29.3071 53.1016ZM31.5367 50.4453V54H31.0655V50.4453H31.5367ZM34.9382 53.1016C34.9382 53.0186 34.9252 52.9453 34.8991 52.8818C34.8747 52.8167 34.8308 52.7581 34.7673 52.7061C34.7054 52.654 34.6192 52.6043 34.5085 52.5571C34.3994 52.5099 34.2611 52.4619 34.0935 52.4131C33.9177 52.361 33.759 52.3032 33.6174 52.2397C33.4758 52.1746 33.3545 52.1006 33.2536 52.0176C33.1527 51.9346 33.0754 51.8394 33.0217 51.7319C32.968 51.6245 32.9411 51.5016 32.9411 51.3633C32.9411 51.2249 32.9696 51.0972 33.0266 50.98C33.0835 50.8628 33.1649 50.7611 33.2707 50.6748C33.3781 50.5869 33.5059 50.5186 33.654 50.4697C33.8021 50.4209 33.9673 50.3965 34.1496 50.3965C34.4165 50.3965 34.6428 50.4478 34.8283 50.5503C35.0155 50.6512 35.1579 50.7839 35.2556 50.9482C35.3532 51.111 35.4021 51.2852 35.4021 51.4707H34.9333C34.9333 51.3372 34.9048 51.2192 34.8479 51.1167C34.7909 51.0125 34.7046 50.9312 34.5891 50.8726C34.4735 50.8123 34.327 50.7822 34.1496 50.7822C33.982 50.7822 33.8436 50.8075 33.7346 50.8579C33.6255 50.9084 33.5441 50.9767 33.4904 51.063C33.4383 51.1493 33.4123 51.2477 33.4123 51.3584C33.4123 51.4333 33.4278 51.5016 33.4587 51.5635C33.4912 51.6237 33.5409 51.6799 33.6076 51.7319C33.676 51.784 33.7622 51.832 33.8664 51.876C33.9722 51.9199 34.0983 51.9622 34.2448 52.0029C34.4466 52.0599 34.6208 52.1234 34.7673 52.1934C34.9138 52.2633 35.0342 52.3423 35.1286 52.4302C35.2246 52.5164 35.2954 52.6149 35.341 52.7256C35.3882 52.8346 35.4118 52.9583 35.4118 53.0967C35.4118 53.2415 35.3825 53.3726 35.3239 53.4897C35.2653 53.6069 35.1815 53.707 35.0725 53.79C34.9634 53.873 34.8324 53.9373 34.6794 53.9829C34.528 54.0269 34.3588 54.0488 34.1716 54.0488C34.0072 54.0488 33.8452 54.026 33.6857 53.9805C33.5279 53.9349 33.3838 53.8665 33.2536 53.7754C33.125 53.6842 33.0217 53.5719 32.9436 53.4385C32.8671 53.3034 32.8288 53.1471 32.8288 52.9697H33.2976C33.2976 53.0918 33.3212 53.1968 33.3684 53.2847C33.4156 53.3709 33.4799 53.4425 33.5612 53.4995C33.6442 53.5565 33.7378 53.5988 33.842 53.6265C33.9478 53.6525 34.0576 53.6655 34.1716 53.6655C34.336 53.6655 34.4751 53.6427 34.5891 53.5972C34.703 53.5516 34.7893 53.4865 34.8479 53.4019C34.9081 53.3172 34.9382 53.2171 34.9382 53.1016ZM37.9759 50.4453V54H37.512V50.4453H37.9759ZM39.1185 50.4453V50.8311H36.3719V50.4453H39.1185ZM42.5541 53.6167V54H40.6718V53.6167H42.5541ZM40.767 50.4453V54H40.2958V50.4453H40.767ZM42.3051 51.9736V52.3569H40.6718V51.9736H42.3051ZM42.5297 50.4453V50.8311H40.6718V50.4453H42.5297ZM43.9365 50.4453H44.3931L45.5576 53.3433L46.7197 50.4453H47.1787L45.7334 54H45.377L43.9365 50.4453ZM43.7876 50.4453H44.1904L44.2563 52.6133V54H43.7876V50.4453ZM46.9224 50.4453H47.3252V54H46.8564V52.6133L46.9224 50.4453ZM50.1627 50.7603L48.9859 54H48.505L49.86 50.4453H50.17L50.1627 50.7603ZM51.149 54L49.9698 50.7603L49.9625 50.4453H50.2726L51.6324 54H51.149ZM51.088 52.6841V53.0698H49.0909V52.6841H51.088ZM55.1541 50.4453V54H54.6829V50.4453H55.1541ZM59.3954 50.4453V54H58.9218L57.1322 51.2583V54H56.661V50.4453H57.1322L58.9291 53.1943V50.4453H59.3954ZM62.1206 50.4453V54H61.6567V50.4453H62.1206ZM63.2632 50.4453V50.8311H60.5166V50.4453H63.2632ZM66.6988 53.6167V54H64.8165V53.6167H66.6988ZM64.9117 50.4453V54H64.4405V50.4453H64.9117ZM66.4498 51.9736V52.3569H64.8165V51.9736H66.4498ZM66.6744 50.4453V50.8311H64.8165V50.4453H66.6744ZM70.5593 52.23V53.5312C70.5153 53.5964 70.4453 53.6696 70.3493 53.751C70.2533 53.8307 70.1206 53.9007 69.9514 53.9609C69.7837 54.0195 69.5673 54.0488 69.302 54.0488C69.0855 54.0488 68.8861 54.0114 68.7038 53.9365C68.5231 53.86 68.3661 53.7493 68.2326 53.6045C68.1008 53.458 67.9982 53.2806 67.925 53.0723C67.8534 52.8623 67.8176 52.6247 67.8176 52.3594V52.0835C67.8176 51.8182 67.8485 51.5814 67.9104 51.373C67.9738 51.1647 68.0666 50.9881 68.1887 50.8433C68.3107 50.6968 68.4605 50.5861 68.6379 50.5112C68.8153 50.4347 69.0187 50.3965 69.2482 50.3965C69.5201 50.3965 69.7471 50.4437 69.9294 50.5381C70.1133 50.6309 70.2565 50.7594 70.3591 50.9238C70.4632 51.0882 70.53 51.2754 70.5593 51.4854H70.0881C70.0669 51.3568 70.0246 51.2396 69.9611 51.1338C69.8993 51.028 69.8106 50.9434 69.695 50.8799C69.5795 50.8148 69.4305 50.7822 69.2482 50.7822C69.0839 50.7822 68.9414 50.8123 68.821 50.8726C68.7006 50.9328 68.6013 51.019 68.5231 51.1313C68.445 51.2437 68.3864 51.3796 68.3474 51.5391C68.3099 51.6986 68.2912 51.8784 68.2912 52.0786V52.3594C68.2912 52.5645 68.3148 52.7476 68.362 52.9087C68.4108 53.0698 68.48 53.2074 68.5695 53.3213C68.659 53.4336 68.7657 53.519 68.8894 53.5776C69.0147 53.6362 69.153 53.6655 69.3044 53.6655C69.472 53.6655 69.6079 53.6517 69.7121 53.624C69.8163 53.5947 69.8977 53.5605 69.9562 53.5215C70.0148 53.4808 70.0596 53.4425 70.0905 53.4067V52.6108H69.2678V52.23H70.5593ZM71.9905 50.4453H73.1673C73.4342 50.4453 73.6596 50.486 73.8436 50.5674C74.0291 50.6488 74.1699 50.7692 74.2659 50.9287C74.3636 51.0866 74.4124 51.2811 74.4124 51.5122C74.4124 51.675 74.379 51.8239 74.3123 51.959C74.2472 52.0924 74.1528 52.2064 74.0291 52.3008C73.907 52.3936 73.7605 52.4627 73.5896 52.5083L73.4578 52.5596H72.3519L72.347 52.1763H73.1819C73.3512 52.1763 73.492 52.147 73.6043 52.0884C73.7166 52.0282 73.8012 51.9476 73.8582 51.8467C73.9152 51.7458 73.9437 51.6343 73.9437 51.5122C73.9437 51.3755 73.9168 51.2559 73.8631 51.1533C73.8094 51.0508 73.7247 50.9718 73.6092 50.9165C73.4952 50.8595 73.3479 50.8311 73.1673 50.8311H72.4617V54H71.9905V50.4453ZM74.0682 54L73.2039 52.3887L73.6946 52.3862L74.5711 53.9707V54H74.0682ZM77.0375 50.7603L75.8607 54H75.3798L76.7348 50.4453H77.0448L77.0375 50.7603ZM78.0238 54L76.8446 50.7603L76.8373 50.4453H77.1474L78.5072 54H78.0238ZM77.9628 52.6841V53.0698H75.9657V52.6841H77.9628ZM80.5952 54H79.853L79.8579 53.6167H80.5952C80.8491 53.6167 81.0607 53.5638 81.23 53.458C81.3993 53.3506 81.5262 53.2008 81.6108 53.0088C81.6971 52.8151 81.7402 52.5889 81.7402 52.3301V52.1128C81.7402 51.9093 81.7158 51.7287 81.667 51.5708C81.6182 51.4113 81.5465 51.277 81.4521 51.168C81.3577 51.0573 81.2422 50.9735 81.1055 50.9165C80.9704 50.8595 80.8149 50.8311 80.6392 50.8311H79.8384V50.4453H80.6392C80.8719 50.4453 81.0843 50.4844 81.2764 50.5625C81.4684 50.639 81.6336 50.7505 81.772 50.897C81.9119 51.0418 82.0194 51.2176 82.0942 51.4243C82.1691 51.6294 82.2065 51.8605 82.2065 52.1177V52.3301C82.2065 52.5872 82.1691 52.8192 82.0942 53.0259C82.0194 53.231 81.9111 53.4059 81.7695 53.5508C81.6296 53.6956 81.4603 53.8071 81.2617 53.8853C81.0648 53.9618 80.8426 54 80.5952 54ZM80.1045 50.4453V54H79.6333V50.4453H80.1045ZM86.3014 52.1104V52.335C86.3014 52.6019 86.268 52.8411 86.2013 53.0527C86.1345 53.2643 86.0385 53.4442 85.9132 53.5923C85.7879 53.7404 85.6373 53.8535 85.4615 53.9316C85.2874 54.0098 85.0921 54.0488 84.8756 54.0488C84.6656 54.0488 84.4728 54.0098 84.297 53.9316C84.1228 53.8535 83.9715 53.7404 83.8429 53.5923C83.7159 53.4442 83.6174 53.2643 83.5475 53.0527C83.4775 52.8411 83.4425 52.6019 83.4425 52.335V52.1104C83.4425 51.8434 83.4767 51.605 83.545 51.395C83.615 51.1834 83.7135 51.0036 83.8404 50.8555C83.9674 50.7057 84.1179 50.5918 84.2921 50.5137C84.4679 50.4355 84.6607 50.3965 84.8707 50.3965C85.0872 50.3965 85.2825 50.4355 85.4566 50.5137C85.6324 50.5918 85.783 50.7057 85.9083 50.8555C86.0353 51.0036 86.1321 51.1834 86.1988 51.395C86.2672 51.605 86.3014 51.8434 86.3014 52.1104ZM85.8351 52.335V52.1055C85.8351 51.8939 85.8131 51.7067 85.7691 51.5439C85.7268 51.3812 85.6642 51.2445 85.5812 51.1338C85.4981 51.0231 85.3964 50.9393 85.276 50.8823C85.1572 50.8254 85.0221 50.7969 84.8707 50.7969C84.7242 50.7969 84.5916 50.8254 84.4728 50.8823C84.3556 50.9393 84.2547 51.0231 84.17 51.1338C84.087 51.2445 84.0227 51.3812 83.9771 51.5439C83.9316 51.7067 83.9088 51.8939 83.9088 52.1055V52.335C83.9088 52.5482 83.9316 52.737 83.9771 52.9014C84.0227 53.0641 84.0878 53.2017 84.1725 53.314C84.2587 53.4246 84.3605 53.5085 84.4776 53.5654C84.5965 53.6224 84.7291 53.6509 84.8756 53.6509C85.0286 53.6509 85.1645 53.6224 85.2833 53.5654C85.4021 53.5085 85.5022 53.4246 85.5836 53.314C85.6666 53.2017 85.7293 53.0641 85.7716 52.9014C85.8139 52.737 85.8351 52.5482 85.8351 52.335ZM90.5091 54H89.7669L89.7718 53.6167H90.5091C90.763 53.6167 90.9746 53.5638 91.1438 53.458C91.3131 53.3506 91.4401 53.2008 91.5247 53.0088C91.611 52.8151 91.6541 52.5889 91.6541 52.3301V52.1128C91.6541 51.9093 91.6297 51.7287 91.5809 51.5708C91.532 51.4113 91.4604 51.277 91.366 51.168C91.2716 51.0573 91.1561 50.9735 91.0193 50.9165C90.8842 50.8595 90.7288 50.8311 90.553 50.8311H89.7522V50.4453H90.553C90.7858 50.4453 90.9982 50.4844 91.1902 50.5625C91.3823 50.639 91.5475 50.7505 91.6858 50.897C91.8258 51.0418 91.9332 51.2176 92.0081 51.4243C92.083 51.6294 92.1204 51.8605 92.1204 52.1177V52.3301C92.1204 52.5872 92.083 52.8192 92.0081 53.0259C91.9332 53.231 91.825 53.4059 91.6834 53.5508C91.5434 53.6956 91.3742 53.8071 91.1756 53.8853C90.9786 53.9618 90.7565 54 90.5091 54ZM90.0184 50.4453V54H89.5472V50.4453H90.0184ZM95.7367 53.6167V54H93.8544V53.6167H95.7367ZM93.9496 50.4453V54H93.4784V50.4453H93.9496ZM95.4877 51.9736V52.3569H93.8544V51.9736H95.4877ZM95.7123 50.4453V50.8311H93.8544V50.4453H95.7123ZM103.378 52.23V53.5312C103.334 53.5964 103.264 53.6696 103.168 53.751C103.072 53.8307 102.939 53.9007 102.77 53.9609C102.602 54.0195 102.386 54.0488 102.12 54.0488C101.904 54.0488 101.704 54.0114 101.522 53.9365C101.342 53.86 101.184 53.7493 101.051 53.6045C100.919 53.458 100.817 53.2806 100.743 53.0723C100.672 52.8623 100.636 52.6247 100.636 52.3594V52.0835C100.636 51.8182 100.667 51.5814 100.729 51.373C100.792 51.1647 100.885 50.9881 101.007 50.8433C101.129 50.6968 101.279 50.5861 101.456 50.5112C101.634 50.4347 101.837 50.3965 102.067 50.3965C102.338 50.3965 102.565 50.4437 102.748 50.5381C102.932 50.6309 103.075 50.7594 103.177 50.9238C103.282 51.0882 103.348 51.2754 103.378 51.4854H102.906C102.885 51.3568 102.843 51.2396 102.779 51.1338C102.718 51.028 102.629 50.9434 102.513 50.8799C102.398 50.8148 102.249 50.7822 102.067 50.7822C101.902 50.7822 101.76 50.8123 101.639 50.8726C101.519 50.9328 101.42 51.019 101.342 51.1313C101.263 51.2437 101.205 51.3796 101.166 51.5391C101.128 51.6986 101.11 51.8784 101.11 52.0786V52.3594C101.11 52.5645 101.133 52.7476 101.18 52.9087C101.229 53.0698 101.298 53.2074 101.388 53.3213C101.477 53.4336 101.584 53.519 101.708 53.5776C101.833 53.6362 101.971 53.6655 102.123 53.6655C102.29 53.6655 102.426 53.6517 102.53 53.624C102.635 53.5947 102.716 53.5605 102.775 53.5215C102.833 53.4808 102.878 53.4425 102.909 53.4067V52.6108H102.086V52.23H103.378ZM107.067 53.6167V54H105.185V53.6167H107.067ZM105.28 50.4453V54H104.809V50.4453H105.28ZM106.818 51.9736V52.3569H105.185V51.9736H106.818ZM107.043 50.4453V50.8311H105.185V50.4453H107.043ZM110.195 53.1016C110.195 53.0186 110.182 52.9453 110.156 52.8818C110.132 52.8167 110.088 52.7581 110.024 52.7061C109.962 52.654 109.876 52.6043 109.766 52.5571C109.656 52.5099 109.518 52.4619 109.35 52.4131C109.175 52.361 109.016 52.3032 108.874 52.2397C108.733 52.1746 108.612 52.1006 108.511 52.0176C108.41 51.9346 108.332 51.8394 108.279 51.7319C108.225 51.6245 108.198 51.5016 108.198 51.3633C108.198 51.2249 108.227 51.0972 108.284 50.98C108.341 50.8628 108.422 50.7611 108.528 50.6748C108.635 50.5869 108.763 50.5186 108.911 50.4697C109.059 50.4209 109.224 50.3965 109.407 50.3965C109.674 50.3965 109.9 50.4478 110.085 50.5503C110.273 50.6512 110.415 50.7839 110.513 50.9482C110.61 51.111 110.659 51.2852 110.659 51.4707H110.19C110.19 51.3372 110.162 51.2192 110.105 51.1167C110.048 51.0125 109.962 50.9312 109.846 50.8726C109.731 50.8123 109.584 50.7822 109.407 50.7822C109.239 50.7822 109.101 50.8075 108.992 50.8579C108.883 50.9084 108.801 50.9767 108.747 51.063C108.695 51.1493 108.669 51.2477 108.669 51.3584C108.669 51.4333 108.685 51.5016 108.716 51.5635C108.748 51.6237 108.798 51.6799 108.865 51.7319C108.933 51.784 109.019 51.832 109.123 51.876C109.229 51.9199 109.355 51.9622 109.502 52.0029C109.704 52.0599 109.878 52.1234 110.024 52.1934C110.171 52.2633 110.291 52.3423 110.386 52.4302C110.482 52.5164 110.552 52.6149 110.598 52.7256C110.645 52.8346 110.669 52.9583 110.669 53.0967C110.669 53.2415 110.64 53.3726 110.581 53.4897C110.522 53.6069 110.439 53.707 110.329 53.79C110.22 53.873 110.089 53.9373 109.936 53.9829C109.785 54.0269 109.616 54.0488 109.429 54.0488C109.264 54.0488 109.102 54.026 108.943 53.9805C108.785 53.9349 108.641 53.8665 108.511 53.7754C108.382 53.6842 108.279 53.5719 108.201 53.4385C108.124 53.3034 108.086 53.1471 108.086 52.9697H108.555C108.555 53.0918 108.578 53.1968 108.625 53.2847C108.673 53.3709 108.737 53.4425 108.818 53.4995C108.901 53.5565 108.995 53.5988 109.099 53.6265C109.205 53.6525 109.315 53.6655 109.429 53.6655C109.593 53.6655 109.732 53.6427 109.846 53.5972C109.96 53.5516 110.046 53.4865 110.105 53.4019C110.165 53.3172 110.195 53.2171 110.195 53.1016ZM113.233 50.4453V54H112.769V50.4453H113.233ZM114.375 50.4453V50.8311H111.629V50.4453H114.375ZM116.673 50.7603L115.497 54H115.016L116.371 50.4453H116.681L116.673 50.7603ZM117.66 54L116.481 50.7603L116.473 50.4453H116.783L118.143 54H117.66ZM117.599 52.6841V53.0698H115.602V52.6841H117.599ZM117.147 49.5396L117.452 49.5664C117.452 49.6852 117.429 49.7894 117.381 49.8789C117.334 49.9684 117.271 50.0376 117.191 50.0864C117.113 50.1353 117.024 50.1597 116.925 50.1597C116.842 50.1597 116.774 50.1483 116.72 50.1255C116.666 50.1011 116.618 50.0742 116.576 50.0449C116.533 50.014 116.489 49.9871 116.442 49.9644C116.396 49.9399 116.339 49.9277 116.271 49.9277C116.202 49.9277 116.144 49.9538 116.097 50.0059C116.052 50.0579 116.029 50.1222 116.029 50.1987L115.724 50.1841C115.724 50.0653 115.747 49.9611 115.792 49.8716C115.839 49.7804 115.903 49.7096 115.983 49.6592C116.062 49.6071 116.151 49.5811 116.249 49.5811C116.319 49.5811 116.38 49.5933 116.432 49.6177C116.485 49.6405 116.536 49.6673 116.583 49.6982C116.63 49.7275 116.679 49.7544 116.73 49.7788C116.78 49.8016 116.838 49.813 116.903 49.813C116.971 49.813 117.029 49.7869 117.076 49.7349C117.123 49.6812 117.147 49.616 117.147 49.5396ZM121.977 52.1104V52.335C121.977 52.6019 121.943 52.8411 121.877 53.0527C121.81 53.2643 121.714 53.4442 121.589 53.5923C121.463 53.7404 121.313 53.8535 121.137 53.9316C120.963 54.0098 120.767 54.0488 120.551 54.0488C120.341 54.0488 120.148 54.0098 119.972 53.9316C119.798 53.8535 119.647 53.7404 119.518 53.5923C119.391 53.4442 119.293 53.2643 119.223 53.0527C119.153 52.8411 119.118 52.6019 119.118 52.335V52.1104C119.118 51.8434 119.152 51.605 119.22 51.395C119.29 51.1834 119.389 51.0036 119.516 50.8555C119.643 50.7057 119.793 50.5918 119.967 50.5137C120.143 50.4355 120.336 50.3965 120.546 50.3965C120.763 50.3965 120.958 50.4355 121.132 50.5137C121.308 50.5918 121.458 50.7057 121.584 50.8555C121.711 51.0036 121.807 51.1834 121.874 51.395C121.943 51.605 121.977 51.8434 121.977 52.1104ZM121.51 52.335V52.1055C121.51 51.8939 121.488 51.7067 121.445 51.5439C121.402 51.3812 121.34 51.2445 121.257 51.1338C121.174 51.0231 121.072 50.9393 120.951 50.8823C120.833 50.8254 120.697 50.7969 120.546 50.7969C120.4 50.7969 120.267 50.8254 120.148 50.8823C120.031 50.9393 119.93 51.0231 119.845 51.1338C119.762 51.2445 119.698 51.3812 119.653 51.5439C119.607 51.7067 119.584 51.8939 119.584 52.1055V52.335C119.584 52.5482 119.607 52.737 119.653 52.9014C119.698 53.0641 119.763 53.2017 119.848 53.314C119.934 53.4246 120.036 53.5085 120.153 53.5654C120.272 53.6224 120.404 53.6509 120.551 53.6509C120.704 53.6509 120.84 53.6224 120.959 53.5654C121.078 53.5085 121.178 53.4246 121.259 53.314C121.342 53.2017 121.405 53.0641 121.447 52.9014C121.489 52.737 121.51 52.5482 121.51 52.335ZM126.538 50.7603L125.362 54H124.881L126.236 50.4453H126.546L126.538 50.7603ZM127.525 54L126.346 50.7603L126.338 50.4453H126.648L128.008 54H127.525ZM127.464 52.6841V53.0698H125.467V52.6841H127.464ZM131.251 52.8696H131.72C131.695 53.0942 131.631 53.2952 131.527 53.4727C131.423 53.6501 131.275 53.7909 131.085 53.895C130.895 53.9976 130.657 54.0488 130.372 54.0488C130.164 54.0488 129.974 54.0098 129.803 53.9316C129.634 53.8535 129.488 53.7428 129.366 53.5996C129.244 53.4548 129.15 53.2814 129.083 53.0796C129.018 52.8761 128.985 52.6499 128.985 52.4009V52.0469C128.985 51.7979 129.018 51.5724 129.083 51.3706C129.15 51.1672 129.245 50.993 129.369 50.8481C129.494 50.7033 129.645 50.5918 129.82 50.5137C129.996 50.4355 130.194 50.3965 130.414 50.3965C130.682 50.3965 130.909 50.4469 131.095 50.5479C131.28 50.6488 131.424 50.7887 131.527 50.9678C131.631 51.1452 131.695 51.3511 131.72 51.5854H131.251C131.228 51.4194 131.186 51.277 131.124 51.1582C131.062 51.0378 130.974 50.945 130.86 50.8799C130.746 50.8148 130.597 50.7822 130.414 50.7822C130.256 50.7822 130.117 50.8123 129.996 50.8726C129.877 50.9328 129.777 51.0182 129.696 51.1289C129.616 51.2396 129.556 51.3722 129.515 51.5269C129.474 51.6815 129.454 51.8532 129.454 52.042V52.4009C129.454 52.575 129.472 52.7386 129.508 52.8916C129.545 53.0446 129.601 53.1789 129.676 53.2944C129.751 53.41 129.846 53.5011 129.962 53.5679C130.077 53.633 130.214 53.6655 130.372 53.6655C130.572 53.6655 130.732 53.6338 130.851 53.5703C130.969 53.5068 131.059 53.4157 131.119 53.2969C131.181 53.1781 131.225 53.0356 131.251 52.8696ZM134.328 50.7603L133.151 54H132.67L134.025 50.4453H134.335L134.328 50.7603ZM135.314 54L134.135 50.7603L134.128 50.4453H134.438L135.797 54H135.314ZM135.253 52.6841V53.0698H133.256V52.6841H135.253ZM137.885 54H137.143L137.148 53.6167H137.885C138.139 53.6167 138.351 53.5638 138.52 53.458C138.689 53.3506 138.816 53.2008 138.901 53.0088C138.987 52.8151 139.03 52.5889 139.03 52.3301V52.1128C139.03 51.9093 139.006 51.7287 138.957 51.5708C138.908 51.4113 138.837 51.277 138.742 51.168C138.648 51.0573 138.532 50.9735 138.396 50.9165C138.261 50.8595 138.105 50.8311 137.929 50.8311H137.129V50.4453H137.929C138.162 50.4453 138.375 50.4844 138.567 50.5625C138.759 50.639 138.924 50.7505 139.062 50.897C139.202 51.0418 139.31 51.2176 139.384 51.4243C139.459 51.6294 139.497 51.8605 139.497 52.1177V52.3301C139.497 52.5872 139.459 52.8192 139.384 53.0259C139.31 53.231 139.201 53.4059 139.06 53.5508C138.92 53.6956 138.751 53.8071 138.552 53.8853C138.355 53.9618 138.133 54 137.885 54ZM137.395 50.4453V54H136.924V50.4453H137.395ZM143.113 53.6167V54H141.231V53.6167H143.113ZM141.326 50.4453V54H140.855V50.4453H141.326ZM142.864 51.9736V52.3569H141.231V51.9736H142.864ZM143.089 50.4453V50.8311H141.231V50.4453H143.089ZM142.09 49.4639L142.696 50.1304V50.1548H142.32L141.953 49.7422L141.59 50.1548H141.219V50.1279L141.817 49.4639H142.09ZM144.496 50.4453H144.952L146.117 53.3433L147.279 50.4453H147.738L146.292 54H145.936L144.496 50.4453ZM144.347 50.4453H144.749L144.815 52.6133V54H144.347V50.4453ZM147.481 50.4453H147.884V54H147.415V52.6133L147.481 50.4453ZM149.867 50.4453V54H149.396V50.4453H149.867ZM153.52 52.8696H153.989C153.964 53.0942 153.9 53.2952 153.796 53.4727C153.692 53.6501 153.545 53.7909 153.354 53.895C153.164 53.9976 152.926 54.0488 152.641 54.0488C152.433 54.0488 152.243 54.0098 152.072 53.9316C151.903 53.8535 151.757 53.7428 151.635 53.5996C151.513 53.4548 151.419 53.2814 151.352 53.0796C151.287 52.8761 151.254 52.6499 151.254 52.4009V52.0469C151.254 51.7979 151.287 51.5724 151.352 51.3706C151.419 51.1672 151.514 50.993 151.638 50.8481C151.763 50.7033 151.914 50.5918 152.089 50.5137C152.265 50.4355 152.463 50.3965 152.683 50.3965C152.951 50.3965 153.178 50.4469 153.364 50.5479C153.549 50.6488 153.693 50.7887 153.796 50.9678C153.9 51.1452 153.964 51.3511 153.989 51.5854H153.52C153.497 51.4194 153.455 51.277 153.393 51.1582C153.331 51.0378 153.243 50.945 153.129 50.8799C153.016 50.8148 152.867 50.7822 152.683 50.7822C152.525 50.7822 152.386 50.8123 152.265 50.8726C152.146 50.9328 152.046 51.0182 151.965 51.1289C151.885 51.2396 151.825 51.3722 151.784 51.5269C151.744 51.6815 151.723 51.8532 151.723 52.042V52.4009C151.723 52.575 151.741 52.7386 151.777 52.8916C151.814 53.0446 151.871 53.1789 151.945 53.2944C152.02 53.41 152.115 53.5011 152.231 53.5679C152.347 53.633 152.483 53.6655 152.641 53.6655C152.841 53.6655 153.001 53.6338 153.12 53.5703C153.239 53.5068 153.328 53.4157 153.388 53.2969C153.45 53.1781 153.494 53.0356 153.52 52.8696ZM156.597 50.7603L155.42 54H154.939L156.294 50.4453H156.604L156.597 50.7603ZM157.583 54L156.404 50.7603L156.397 50.4453H156.707L158.067 54H157.583ZM157.522 52.6841V53.0698H155.525V52.6841H157.522Z" fill="white"/>
<rect x="142.5" y="6.5" width="31" height="31" stroke="white"/>
<rect x="145.5" y="3.5" width="31" height="31" stroke="white"/>
<rect x="148.5" y="0.5" width="31" height="31" stroke="white"/>
<rect x="153" y="20" width="7" height="7" fill="white"/>
</svg>
